{"asset":{"generator":"Khronos glTF Blender I/O v1.6.16","version":"2.0"},"scene":0,"scenes":[{"name":"Scene","nodes":[0]}],"nodes":[{"mesh":0,"name":"Object001.002","scale":[0.02539999969303608,0.02539999969303608,0.02539999969303608]}],"meshes":[{"name":"Mesh.002","primitives":[{"attributes":{"POSITION":0,"NORMAL":1,"TEXCOORD_0":2},"indices":3}]}],"accessors":[{"bufferView":0,"componentType":5126,"count":43290,"max":[74.11663818359375,339.2186279296875,74.11668395996094],"min":[-74.11669921875,-0.0000457763671875,-74.11665344238281],"type":"VEC3"},{"bufferView":1,"componentType":5126,"count":43290,"type":"VEC3"},{"bufferView":2,"componentType":5126,"count":43290,"type":"VEC2"},{"bufferView":3,"componentType":5123,"count":212784,"type":"SCALAR"}],"bufferViews":[{"buffer":0,"byteLength":519480,"byteOffset":0},{"buffer":0,"byteLength":519480,"byteOffset":519480},{"buffer":0,"byteLength":346320,"byteOffset":1038960},{"buffer":0,"byteLength":425568,"byteOffset":1385280},{"buffer":0,"byteLength":2188331,"byteOffset":1810848}],"buffers":[{"byteLength":3999180,"uri":"bishop.bin"}]}