{"asset":{"generator":"Khronos glTF Blender I/O v1.6.16","version":"2.0"},"scene":0,"scenes":[{"name":"Scene","nodes":[0]}],"nodes":[{"mesh":0,"name":"Object001.004","scale":[0.02539999969303608,0.02539999969303608,0.02539999969303608]}],"meshes":[{"name":"Mesh.004","primitives":[{"attributes":{"POSITION":0,"NORMAL":1,"TEXCOORD_0":2},"indices":3}]}],"accessors":[{"bufferView":0,"componentType":5126,"count":54875,"max":[86.15798950195312,476.235107421875,86.15797424316406],"min":[-86.15792846679688,-0.0000152587890625,-86.15792846679688],"type":"VEC3"},{"bufferView":1,"componentType":5126,"count":54875,"type":"VEC3"},{"bufferView":2,"componentType":5126,"count":54875,"type":"VEC2"},{"bufferView":3,"componentType":5123,"count":272640,"type":"SCALAR"}],"bufferViews":[{"buffer":0,"byteLength":658500,"byteOffset":0},{"buffer":0,"byteLength":658500,"byteOffset":658500},{"buffer":0,"byteLength":439000,"byteOffset":1317000},{"buffer":0,"byteLength":545280,"byteOffset":1756000},{"buffer":0,"byteLength":2188331,"byteOffset":2301280}],"buffers":[{"byteLength":4489612,"uri":"king.bin"}]}