{"asset":{"generator":"Khronos glTF Blender I/O v1.6.16","version":"2.0"},"scene":0,"scenes":[{"name":"Scene","nodes":[0]}],"nodes":[{"mesh":0,"name":"Object001.005","scale":[0.02539999969303608,0.02539999969303608,0.02539999969303608]}],"meshes":[{"name":"Mesh.005","primitives":[{"attributes":{"POSITION":0,"NORMAL":1,"TEXCOORD_0":2},"indices":3}]}],"accessors":[{"bufferView":0,"componentType":5126,"count":29322,"max":[77.41424560546875,329.5471496582031,74.11665344238281],"min":[-78.01191711425781,-0.00003814697265625,-74.11665344238281],"type":"VEC3"},{"bufferView":1,"componentType":5126,"count":29322,"type":"VEC3"},{"bufferView":2,"componentType":5126,"count":29322,"type":"VEC2"},{"bufferView":3,"componentType":5123,"count":136032,"type":"SCALAR"}],"bufferViews":[{"buffer":0,"byteLength":351864,"byteOffset":0},{"buffer":0,"byteLength":351864,"byteOffset":351864},{"buffer":0,"byteLength":234576,"byteOffset":703728},{"buffer":0,"byteLength":272064,"byteOffset":938304},{"buffer":0,"byteLength":2188331,"byteOffset":1210368}],"buffers":[{"byteLength":3398700,"uri":"knight.bin"}]}