{"asset":{"generator":"Khronos glTF Blender I/O v1.6.16","version":"2.0"},"scene":0,"scenes":[{"name":"Scene","nodes":[0]}],"nodes":[{"mesh":0,"name":"Object001","scale":[0.02539999969303608,0.02539999969303608,0.02539999969303608]}],"meshes":[{"name":"Mesh","primitives":[{"attributes":{"POSITION":0,"NORMAL":1,"TEXCOORD_0":2},"indices":3}]}],"accessors":[{"bufferView":0,"componentType":5126,"count":34085,"max":[67.027099609375,244.07936096191406,67.02719116210938],"min":[-67.02725219726562,-0.00003814697265625,-67.02717590332031],"type":"VEC3"},{"bufferView":1,"componentType":5126,"count":34085,"type":"VEC3"},{"bufferView":2,"componentType":5126,"count":34085,"type":"VEC2"},{"bufferView":3,"componentType":5123,"count":168192,"type":"SCALAR"}],"bufferViews":[{"buffer":0,"byteLength":409020,"byteOffset":0},{"buffer":0,"byteLength":409020,"byteOffset":409020},{"buffer":0,"byteLength":272680,"byteOffset":818040},{"buffer":0,"byteLength":336384,"byteOffset":1090720},{"buffer":0,"byteLength":2188331,"byteOffset":1427104}],"buffers":[{"byteLength":3615436,"uri":"pawn.bin"}]}