{"asset":{"generator":"Khronos glTF Blender I/O v1.6.16","version":"2.0"},"scene":0,"scenes":[{"name":"Scene","nodes":[0]}],"nodes":[{"mesh":0,"name":"Object001.003","scale":[0.02539999969303608,0.02539999969303608,0.02539999969303608]}],"meshes":[{"name":"Mesh.003","primitives":[{"attributes":{"POSITION":0,"NORMAL":1,"TEXCOORD_0":2},"indices":3}]}],"accessors":[{"bufferView":0,"componentType":5126,"count":40296,"max":[83.5672607421875,419.8594665527344,83.56730651855469],"min":[-83.56729125976562,-0.000030517578125,-83.56724548339844],"type":"VEC3"},{"bufferView":1,"componentType":5126,"count":40296,"type":"VEC3"},{"bufferView":2,"componentType":5126,"count":40296,"type":"VEC2"},{"bufferView":3,"componentType":5123,"count":196608,"type":"SCALAR"}],"bufferViews":[{"buffer":0,"byteLength":483552,"byteOffset":0},{"buffer":0,"byteLength":483552,"byteOffset":483552},{"buffer":0,"byteLength":322368,"byteOffset":967104},{"buffer":0,"byteLength":393216,"byteOffset":1289472},{"buffer":0,"byteLength":2188331,"byteOffset":1682688}],"buffers":[{"byteLength":3871020,"uri":"queen.bin"}]}