{"asset":{"generator":"Khronos glTF Blender I/O v1.6.16","version":"2.0"},"scene":0,"scenes":[{"name":"Scene","nodes":[0]}],"nodes":[{"mesh":0,"name":"Object001.001","scale":[0.02539999969303608,0.02539999969303608,0.02539999969303608]}],"meshes":[{"name":"Mesh.001","primitives":[{"attributes":{"POSITION":0,"NORMAL":1,"TEXCOORD_0":2},"indices":3}]}],"accessors":[{"bufferView":0,"componentType":5126,"count":12415,"max":[77.5096435546875,266.72216796875,77.50973510742188],"min":[-77.50978088378906,-0.000030517578125,-77.50970458984375],"type":"VEC3"},{"bufferView":1,"componentType":5126,"count":12415,"type":"VEC3"},{"bufferView":2,"componentType":5126,"count":12415,"type":"VEC2"},{"bufferView":3,"componentType":5123,"count":53568,"type":"SCALAR"}],"bufferViews":[{"buffer":0,"byteLength":148980,"byteOffset":0},{"buffer":0,"byteLength":148980,"byteOffset":148980},{"buffer":0,"byteLength":99320,"byteOffset":297960},{"buffer":0,"byteLength":107136,"byteOffset":397280},{"buffer":0,"byteLength":2188331,"byteOffset":504416}],"buffers":[{"byteLength":2692748,"uri":"rook.bin"}]}